P1
14 20
11110000001111
11100000000111
11001111110011
10000111110001
10000011000101
10000101110001
10000111100001
10000000000001
10001001001001
00000001100010
00000001111000
00000001111000
10000000011000
11000000110001
11000000000011
11000000000011
11100000000011
11100000000111
11110000001111
11111000011111
